<svg width="197" height="207" viewBox="0 0 197 207" fill="none" xmlns="http://www.w3.org/2000/svg">
<mask id="path-1-outside-1_262_125" maskUnits="userSpaceOnUse" x="0" y="9.34497" width="197" height="197" fill="black">
<rect fill="white" y="9.34497" width="197" height="197"/>
<path d="M191.691 176.144V188.59C188.191 188.59 185.241 189.789 182.843 192.188C180.444 194.586 179.245 197.536 179.245 201.036H166.799C166.799 197.536 165.6 194.586 163.201 192.188C160.803 189.789 157.886 188.59 154.45 188.59C151.015 188.59 148.065 189.789 145.602 192.188C143.139 194.586 141.907 197.536 141.907 201.036H129.461C129.461 197.536 128.262 194.586 125.863 192.188C123.465 189.789 120.515 188.59 117.015 188.59C113.514 188.59 110.565 189.789 108.166 192.188C105.768 194.586 104.569 197.536 104.569 201.036H92.1226C92.1226 197.536 90.9233 194.586 88.5249 192.188C86.1264 189.789 83.1769 188.59 79.6765 188.59C76.176 188.59 73.2266 189.789 70.8281 192.188C68.4296 194.586 67.2304 197.536 67.2304 201.036H54.7843C54.7843 197.536 53.5527 194.586 51.0894 192.188C48.6261 189.789 45.6767 188.59 42.241 188.59C38.8054 188.59 35.8883 189.789 33.4899 192.188C31.0914 194.586 29.8922 197.536 29.8922 201.036H17.4461C17.4461 197.536 16.2469 194.586 13.8484 192.188C11.4499 189.789 8.50046 188.59 5 188.59V176.144C8.37081 176.144 11.2879 174.912 13.7512 172.449C16.2144 169.986 17.4461 167.036 17.4461 163.601C17.4461 160.165 16.2469 157.248 13.8484 154.85C11.4499 152.451 8.50046 151.252 5 151.252V138.806C8.50046 138.806 11.4499 137.574 13.8484 135.111C16.2469 132.648 17.4461 129.698 17.4461 126.262C17.4461 122.827 16.2469 119.91 13.8484 117.511C11.4499 115.113 8.50046 113.914 5 113.914V101.468C8.37081 101.468 11.2879 100.236 13.7512 97.7726C16.2144 95.3093 17.4461 92.3599 17.4461 88.9242C17.4461 85.4886 16.2469 82.5715 13.8484 80.1731C11.4499 77.7746 8.50046 76.5754 5 76.5754V64.1293C8.37081 64.1293 11.2879 62.8977 13.7512 60.4344C16.2144 57.9711 17.4461 55.0216 17.4461 51.586C17.4461 48.1503 16.2144 45.2333 13.7512 42.8348C11.2879 40.4364 8.37081 39.2371 5 39.2371V26.7911C8.50046 26.7911 11.4499 25.5594 13.8484 23.0961C16.2469 20.6328 17.4461 17.7158 17.4461 14.345H29.8922C29.8922 17.7158 31.0914 20.6328 33.4899 23.0961C35.8883 25.5594 38.8054 26.7911 42.241 26.7911C45.6767 26.7911 48.6261 25.5594 51.0894 23.0961C53.5527 20.6328 54.7843 17.7158 54.7843 14.345H67.2304C67.2304 17.7158 68.4296 20.6328 70.8281 23.0961C73.2266 25.5594 76.176 26.7911 79.6765 26.7911C83.1769 26.7911 86.1264 25.5594 88.5249 23.0961C90.9233 20.6328 92.1226 17.7158 92.1226 14.345H104.569C104.569 17.7158 105.768 20.6328 108.166 23.0961C110.565 25.5594 113.514 26.7911 117.015 26.7911C120.515 26.7911 123.465 25.5594 125.863 23.0961C128.262 20.6328 129.461 17.7158 129.461 14.345H141.907C141.907 17.7158 143.139 20.6328 145.602 23.0961C148.065 25.5594 151.015 26.7911 154.45 26.7911C157.886 26.7911 160.803 25.5594 163.201 23.0961C165.6 20.6328 166.799 17.7158 166.799 14.345H179.245C179.245 17.7158 180.444 20.6328 182.843 23.0961C185.241 25.5594 188.191 26.7911 191.691 26.7911V39.2371C188.32 39.2371 185.403 40.4364 182.94 42.8348C180.477 45.2333 179.245 48.1503 179.245 51.586C179.245 55.0216 180.477 57.9711 182.94 60.4344C185.403 62.8977 188.32 64.1293 191.691 64.1293V76.5754C188.191 76.5754 185.241 77.7746 182.843 80.1731C180.444 82.5715 179.245 85.4886 179.245 88.9242C179.245 92.3599 180.477 95.3093 182.94 97.7726C185.403 100.236 188.32 101.468 191.691 101.468V113.914C188.191 113.914 185.241 115.113 182.843 117.511C180.444 119.91 179.245 122.827 179.245 126.262C179.245 129.698 180.444 132.648 182.843 135.111C185.241 137.574 188.191 138.806 191.691 138.806V151.252C188.191 151.252 185.241 152.451 182.843 154.85C180.444 157.248 179.245 160.165 179.245 163.601C179.245 167.036 180.477 169.986 182.94 172.449C185.403 174.912 188.32 176.144 191.691 176.144ZM166.799 45.4602C166.799 43.7748 166.183 42.3162 164.952 41.0846C163.72 39.853 162.261 39.2371 160.576 39.2371H36.1152C34.4298 39.2371 32.9713 39.853 31.7396 41.0846C30.508 42.3162 29.8922 43.7748 29.8922 45.4602V169.921C29.8922 171.606 30.508 173.065 31.7396 174.297C32.9713 175.528 34.4298 176.144 36.1152 176.144H160.576C162.261 176.144 163.72 175.528 164.952 174.297C166.183 173.065 166.799 171.606 166.799 169.921V45.4602Z"/>
</mask>
<path d="M191.691 176.144V188.59C188.191 188.59 185.241 189.789 182.843 192.188C180.444 194.586 179.245 197.536 179.245 201.036H166.799C166.799 197.536 165.6 194.586 163.201 192.188C160.803 189.789 157.886 188.59 154.45 188.59C151.015 188.59 148.065 189.789 145.602 192.188C143.139 194.586 141.907 197.536 141.907 201.036H129.461C129.461 197.536 128.262 194.586 125.863 192.188C123.465 189.789 120.515 188.59 117.015 188.59C113.514 188.59 110.565 189.789 108.166 192.188C105.768 194.586 104.569 197.536 104.569 201.036H92.1226C92.1226 197.536 90.9233 194.586 88.5249 192.188C86.1264 189.789 83.1769 188.59 79.6765 188.59C76.176 188.59 73.2266 189.789 70.8281 192.188C68.4296 194.586 67.2304 197.536 67.2304 201.036H54.7843C54.7843 197.536 53.5527 194.586 51.0894 192.188C48.6261 189.789 45.6767 188.59 42.241 188.59C38.8054 188.59 35.8883 189.789 33.4899 192.188C31.0914 194.586 29.8922 197.536 29.8922 201.036H17.4461C17.4461 197.536 16.2469 194.586 13.8484 192.188C11.4499 189.789 8.50046 188.59 5 188.59V176.144C8.37081 176.144 11.2879 174.912 13.7512 172.449C16.2144 169.986 17.4461 167.036 17.4461 163.601C17.4461 160.165 16.2469 157.248 13.8484 154.85C11.4499 152.451 8.50046 151.252 5 151.252V138.806C8.50046 138.806 11.4499 137.574 13.8484 135.111C16.2469 132.648 17.4461 129.698 17.4461 126.262C17.4461 122.827 16.2469 119.91 13.8484 117.511C11.4499 115.113 8.50046 113.914 5 113.914V101.468C8.37081 101.468 11.2879 100.236 13.7512 97.7726C16.2144 95.3093 17.4461 92.3599 17.4461 88.9242C17.4461 85.4886 16.2469 82.5715 13.8484 80.1731C11.4499 77.7746 8.50046 76.5754 5 76.5754V64.1293C8.37081 64.1293 11.2879 62.8977 13.7512 60.4344C16.2144 57.9711 17.4461 55.0216 17.4461 51.586C17.4461 48.1503 16.2144 45.2333 13.7512 42.8348C11.2879 40.4364 8.37081 39.2371 5 39.2371V26.7911C8.50046 26.7911 11.4499 25.5594 13.8484 23.0961C16.2469 20.6328 17.4461 17.7158 17.4461 14.345H29.8922C29.8922 17.7158 31.0914 20.6328 33.4899 23.0961C35.8883 25.5594 38.8054 26.7911 42.241 26.7911C45.6767 26.7911 48.6261 25.5594 51.0894 23.0961C53.5527 20.6328 54.7843 17.7158 54.7843 14.345H67.2304C67.2304 17.7158 68.4296 20.6328 70.8281 23.0961C73.2266 25.5594 76.176 26.7911 79.6765 26.7911C83.1769 26.7911 86.1264 25.5594 88.5249 23.0961C90.9233 20.6328 92.1226 17.7158 92.1226 14.345H104.569C104.569 17.7158 105.768 20.6328 108.166 23.0961C110.565 25.5594 113.514 26.7911 117.015 26.7911C120.515 26.7911 123.465 25.5594 125.863 23.0961C128.262 20.6328 129.461 17.7158 129.461 14.345H141.907C141.907 17.7158 143.139 20.6328 145.602 23.0961C148.065 25.5594 151.015 26.7911 154.45 26.7911C157.886 26.7911 160.803 25.5594 163.201 23.0961C165.6 20.6328 166.799 17.7158 166.799 14.345H179.245C179.245 17.7158 180.444 20.6328 182.843 23.0961C185.241 25.5594 188.191 26.7911 191.691 26.7911V39.2371C188.32 39.2371 185.403 40.4364 182.94 42.8348C180.477 45.2333 179.245 48.1503 179.245 51.586C179.245 55.0216 180.477 57.9711 182.94 60.4344C185.403 62.8977 188.32 64.1293 191.691 64.1293V76.5754C188.191 76.5754 185.241 77.7746 182.843 80.1731C180.444 82.5715 179.245 85.4886 179.245 88.9242C179.245 92.3599 180.477 95.3093 182.94 97.7726C185.403 100.236 188.32 101.468 191.691 101.468V113.914C188.191 113.914 185.241 115.113 182.843 117.511C180.444 119.91 179.245 122.827 179.245 126.262C179.245 129.698 180.444 132.648 182.843 135.111C185.241 137.574 188.191 138.806 191.691 138.806V151.252C188.191 151.252 185.241 152.451 182.843 154.85C180.444 157.248 179.245 160.165 179.245 163.601C179.245 167.036 180.477 169.986 182.94 172.449C185.403 174.912 188.32 176.144 191.691 176.144ZM166.799 45.4602C166.799 43.7748 166.183 42.3162 164.952 41.0846C163.72 39.853 162.261 39.2371 160.576 39.2371H36.1152C34.4298 39.2371 32.9713 39.853 31.7396 41.0846C30.508 42.3162 29.8922 43.7748 29.8922 45.4602V169.921C29.8922 171.606 30.508 173.065 31.7396 174.297C32.9713 175.528 34.4298 176.144 36.1152 176.144H160.576C162.261 176.144 163.72 175.528 164.952 174.297C166.183 173.065 166.799 171.606 166.799 169.921V45.4602Z" fill="#86876E"/>
<path d="M191.691 176.144V188.59C188.191 188.59 185.241 189.789 182.843 192.188C180.444 194.586 179.245 197.536 179.245 201.036H166.799C166.799 197.536 165.6 194.586 163.201 192.188C160.803 189.789 157.886 188.59 154.45 188.59C151.015 188.59 148.065 189.789 145.602 192.188C143.139 194.586 141.907 197.536 141.907 201.036H129.461C129.461 197.536 128.262 194.586 125.863 192.188C123.465 189.789 120.515 188.59 117.015 188.59C113.514 188.59 110.565 189.789 108.166 192.188C105.768 194.586 104.569 197.536 104.569 201.036H92.1226C92.1226 197.536 90.9233 194.586 88.5249 192.188C86.1264 189.789 83.1769 188.59 79.6765 188.59C76.176 188.59 73.2266 189.789 70.8281 192.188C68.4296 194.586 67.2304 197.536 67.2304 201.036H54.7843C54.7843 197.536 53.5527 194.586 51.0894 192.188C48.6261 189.789 45.6767 188.59 42.241 188.59C38.8054 188.59 35.8883 189.789 33.4899 192.188C31.0914 194.586 29.8922 197.536 29.8922 201.036H17.4461C17.4461 197.536 16.2469 194.586 13.8484 192.188C11.4499 189.789 8.50046 188.59 5 188.59V176.144C8.37081 176.144 11.2879 174.912 13.7512 172.449C16.2144 169.986 17.4461 167.036 17.4461 163.601C17.4461 160.165 16.2469 157.248 13.8484 154.85C11.4499 152.451 8.50046 151.252 5 151.252V138.806C8.50046 138.806 11.4499 137.574 13.8484 135.111C16.2469 132.648 17.4461 129.698 17.4461 126.262C17.4461 122.827 16.2469 119.91 13.8484 117.511C11.4499 115.113 8.50046 113.914 5 113.914V101.468C8.37081 101.468 11.2879 100.236 13.7512 97.7726C16.2144 95.3093 17.4461 92.3599 17.4461 88.9242C17.4461 85.4886 16.2469 82.5715 13.8484 80.1731C11.4499 77.7746 8.50046 76.5754 5 76.5754V64.1293C8.37081 64.1293 11.2879 62.8977 13.7512 60.4344C16.2144 57.9711 17.4461 55.0216 17.4461 51.586C17.4461 48.1503 16.2144 45.2333 13.7512 42.8348C11.2879 40.4364 8.37081 39.2371 5 39.2371V26.7911C8.50046 26.7911 11.4499 25.5594 13.8484 23.0961C16.2469 20.6328 17.4461 17.7158 17.4461 14.345H29.8922C29.8922 17.7158 31.0914 20.6328 33.4899 23.0961C35.8883 25.5594 38.8054 26.7911 42.241 26.7911C45.6767 26.7911 48.6261 25.5594 51.0894 23.0961C53.5527 20.6328 54.7843 17.7158 54.7843 14.345H67.2304C67.2304 17.7158 68.4296 20.6328 70.8281 23.0961C73.2266 25.5594 76.176 26.7911 79.6765 26.7911C83.1769 26.7911 86.1264 25.5594 88.5249 23.0961C90.9233 20.6328 92.1226 17.7158 92.1226 14.345H104.569C104.569 17.7158 105.768 20.6328 108.166 23.0961C110.565 25.5594 113.514 26.7911 117.015 26.7911C120.515 26.7911 123.465 25.5594 125.863 23.0961C128.262 20.6328 129.461 17.7158 129.461 14.345H141.907C141.907 17.7158 143.139 20.6328 145.602 23.0961C148.065 25.5594 151.015 26.7911 154.45 26.7911C157.886 26.7911 160.803 25.5594 163.201 23.0961C165.6 20.6328 166.799 17.7158 166.799 14.345H179.245C179.245 17.7158 180.444 20.6328 182.843 23.0961C185.241 25.5594 188.191 26.7911 191.691 26.7911V39.2371C188.32 39.2371 185.403 40.4364 182.94 42.8348C180.477 45.2333 179.245 48.1503 179.245 51.586C179.245 55.0216 180.477 57.9711 182.94 60.4344C185.403 62.8977 188.32 64.1293 191.691 64.1293V76.5754C188.191 76.5754 185.241 77.7746 182.843 80.1731C180.444 82.5715 179.245 85.4886 179.245 88.9242C179.245 92.3599 180.477 95.3093 182.94 97.7726C185.403 100.236 188.32 101.468 191.691 101.468V113.914C188.191 113.914 185.241 115.113 182.843 117.511C180.444 119.91 179.245 122.827 179.245 126.262C179.245 129.698 180.444 132.648 182.843 135.111C185.241 137.574 188.191 138.806 191.691 138.806V151.252C188.191 151.252 185.241 152.451 182.843 154.85C180.444 157.248 179.245 160.165 179.245 163.601C179.245 167.036 180.477 169.986 182.94 172.449C185.403 174.912 188.32 176.144 191.691 176.144ZM166.799 45.4602C166.799 43.7748 166.183 42.3162 164.952 41.0846C163.72 39.853 162.261 39.2371 160.576 39.2371H36.1152C34.4298 39.2371 32.9713 39.853 31.7396 41.0846C30.508 42.3162 29.8922 43.7748 29.8922 45.4602V169.921C29.8922 171.606 30.508 173.065 31.7396 174.297C32.9713 175.528 34.4298 176.144 36.1152 176.144H160.576C162.261 176.144 163.72 175.528 164.952 174.297C166.183 173.065 166.799 171.606 166.799 169.921V45.4602Z" stroke="white" stroke-width="10" mask="url(#path-1-outside-1_262_125)"/>
<rect x="28" y="36.345" width="141" height="143" rx="6" fill="#86876E"/>
<path d="M98 166.345C126.167 166.345 149 142.84 149 113.845C149 84.85 126.167 61.345 98 61.345C69.8335 61.345 47 84.85 47 113.845C47 142.84 69.8335 166.345 98 166.345Z" fill="#F5F4E8" stroke="#4C1F1F" stroke-width="6" stroke-linecap="round" stroke-linejoin="round"/>
<path d="M132 142.678C132 143.386 131.706 144.064 131.182 144.564C130.659 145.064 129.949 145.345 129.208 145.345H67.7917C67.0513 145.345 66.3412 145.064 65.8177 144.564C65.2941 144.064 65 143.386 65 142.678C65 141.971 65.2941 141.293 65.8177 140.793C66.3412 140.293 67.0513 140.012 67.7917 140.012H129.208C129.949 140.012 130.659 140.293 131.182 140.793C131.706 141.293 132 141.971 132 142.678ZM126.417 110.678H106.725L112.207 86.2483C112.556 84.6933 112.537 83.0834 112.151 81.5364C111.764 79.9894 111.021 78.5445 109.974 77.3075C108.928 76.0705 107.605 75.0727 106.103 74.3871C104.6 73.7015 102.957 73.3454 101.292 73.345H95.7083C94.0434 73.3454 92.3996 73.7015 90.8974 74.3871C89.3951 75.0727 88.0723 76.0705 87.0259 77.3075C85.9795 78.5445 85.2358 79.9894 84.8495 81.5364C84.4631 83.0834 84.4438 84.6933 84.7929 86.2483L90.2751 110.678H70.5833C69.1025 110.678 67.6824 111.24 66.6353 112.24C65.5882 113.241 65 114.597 65 116.012V129.345C65 130.759 65.5882 132.116 66.6353 133.116C67.6824 134.116 69.1025 134.678 70.5833 134.678H126.417C127.897 134.678 129.318 134.116 130.365 133.116C131.412 132.116 132 130.759 132 129.345V116.012C132 114.597 131.412 113.241 130.365 112.24C129.318 111.24 127.897 110.678 126.417 110.678Z" fill="#4C1F1F"/>
<path d="M42.0672 77.3082C41.2287 78.1889 40.3614 78.9528 39.4653 79.6001C38.5689 80.2293 37.8247 80.6619 37.2328 80.8979L34.543 78.2678L37.4253 75.2405C37.7061 75.515 37.971 75.6501 38.2201 75.6456C38.4692 75.6412 38.7553 75.4692 39.0785 75.1298C39.3492 74.8454 39.5006 74.6038 39.5327 74.4048C39.5644 74.1878 39.4942 73.9952 39.3221 73.8269C39.1772 73.6853 38.9982 73.6253 38.785 73.6472C38.5628 73.6602 38.2576 73.7603 37.8694 73.9476L36.3351 74.7325C34.9852 75.3788 33.8381 75.6743 32.8939 75.619C31.9584 75.5546 31.0515 75.0929 30.173 74.2339C29.1043 73.1889 28.63 72.0431 28.7501 70.7966C28.8699 69.532 29.7203 68.0695 31.3012 66.4091C32.0611 65.611 32.8545 64.9431 33.6813 64.4053C34.5078 63.8495 35.2577 63.4844 35.9308 63.3101L38.3625 65.6878L35.7422 68.4399C35.2894 67.9971 34.7922 68.0601 34.2506 68.6288C33.9886 68.904 33.837 69.1367 33.7959 69.3268C33.7545 69.4988 33.8198 69.669 33.9919 69.8373C34.1459 69.9878 34.3293 70.0431 34.5421 70.0033C34.7637 69.9542 35.0684 69.827 35.4563 69.6217L37.0037 68.8231C38.2556 68.1695 39.3538 67.8794 40.2984 67.9527C41.2426 68.0079 42.1358 68.4474 42.9781 69.2709C44.1283 70.3956 44.6221 71.6402 44.4596 73.0048C44.3059 74.3601 43.5084 75.7946 42.0672 77.3082Z" fill="#4C1F1F"/>
<path d="M53.2205 54.3999L50.5884 56.337L49.756 55.1108L48.7766 55.8316L53.5792 62.9054L54.6503 62.117L56.4006 64.695L49.9736 69.4251L48.2233 66.8471L49.2945 66.0588L44.492 58.985L43.5126 59.7058L44.345 60.9319L41.713 62.869L39.1303 59.0649L50.6378 50.5958L53.2205 54.3999Z" fill="#4C1F1F"/>
<path d="M70.1933 53.9569L70.8813 53.6338L72.0373 56.5275L65.2956 59.6933L64.1396 56.7997L65.1715 56.3151L64.3324 55.0328L61.9935 56.1312L62.2822 57.6719L63.3141 57.1874L64.4701 60.081L58.5884 62.843L57.4323 59.9494L58.1203 59.6264L56.6987 47.428L62.9588 44.4883L70.1933 53.9569ZM61.6246 54.0832L63.2069 53.3402L61.099 50.1602L60.927 50.2409L61.6246 54.0832Z" fill="#4C1F1F"/>
<path d="M93.1556 39.8588L92.2207 40.0273L93.1354 48.5282L94.0703 48.3598L94.4037 51.4579L87.3355 52.7315L87.0022 49.6334L87.8997 49.4716L87.1883 42.8598L85.0543 53.1426L82.2868 53.6412L77.9799 44.6154L78.6812 51.1327L79.5787 50.971L79.9121 54.0691L73.7788 55.1743L73.4455 52.0762L74.3804 51.9077L73.4657 43.4068L72.5308 43.5752L72.1974 40.4771L80.7615 38.934L83.3404 44.4775L84.576 38.2466L92.8222 36.7607L93.1556 39.8588Z" fill="#4C1F1F"/>
<path d="M96.7115 48.4614L97.6583 48.5396L98.9064 40.0812L97.9597 40.003L98.4145 36.9203L106.727 37.6073C108.356 37.7419 109.547 38.1956 110.302 38.9682C111.059 39.7284 111.323 40.8854 111.093 42.4392C110.864 43.9931 110.268 45.0854 109.306 45.7162C108.346 46.3344 107.052 46.5763 105.424 46.4417L103.36 46.2711L102.96 48.9778L104.778 49.128L104.323 52.2106L96.2567 51.544L96.7115 48.4614ZM104.397 43.6552C105.129 43.7157 105.555 43.345 105.673 42.543L105.773 41.8663C105.834 41.4528 105.784 41.1442 105.622 40.9406C105.475 40.7255 105.218 40.6028 104.852 40.5726L104.208 40.5194L103.753 43.602L104.397 43.6552Z" fill="#4C1F1F"/>
<path d="M112.128 49.7592L113.034 50.0449L115.972 42.0156L115.066 41.73L116.137 38.8037L124.454 41.4263C126.012 41.9177 127.087 42.6081 127.678 43.4976C128.268 44.3871 128.305 45.5396 127.787 46.9551C127.495 47.7521 127.08 48.3906 126.54 48.8706C126.001 49.3506 125.388 49.6084 124.701 49.6439L124.654 49.8281C125.748 50.3722 126.071 51.2568 125.623 52.482L125.12 53.8559L125.972 54.1245L124.901 57.0507L119.157 55.2394L120.691 51.0464C120.861 50.5825 120.917 50.2087 120.859 49.9251C120.813 49.6453 120.654 49.4161 120.383 49.2377C120.123 49.063 119.722 48.8899 119.178 48.7185L118.107 51.6447L119.303 52.0218L118.232 54.948L111.057 52.6854L112.128 49.7592ZM120.953 46.8502C121.304 46.9607 121.596 46.9534 121.83 46.8283C122.081 46.6951 122.279 46.4322 122.422 46.0397L122.657 45.3973C122.801 45.0048 122.815 44.6908 122.699 44.4552C122.599 44.2115 122.374 44.0345 122.024 43.924L121.046 43.6155L119.975 46.5417L120.953 46.8502Z" fill="#4C1F1F"/>
<path d="M125.844 57.7103L127.371 54.9942L128.21 55.4397L132.401 47.9871L131.562 47.5416L133.089 44.8255L139.466 48.2109L137.939 50.927L137.1 50.4816L132.909 57.9342L133.748 58.3796L132.221 61.0957L125.844 57.7103Z" fill="#4C1F1F"/>
<path d="M151.646 57.101L156.45 61.0709L154.47 63.4774L153.738 62.8722L146.327 71.8817L142.211 68.4807L143.364 58.3166L139.899 62.5279L140.602 63.1089L138.623 65.5153L133.819 61.5454L135.798 59.139L136.531 59.7442L141.962 53.1411L141.23 52.5359L143.21 50.1295L148.497 54.4988L147.509 63.566L150.369 60.0884L149.666 59.5075L151.646 57.101Z" fill="#4C1F1F"/>
<path d="M151.637 79.521C150.283 77.6399 149.716 75.8132 149.937 74.0408C150.166 72.2787 151.337 70.5794 153.45 68.9431C155.563 67.3067 157.467 66.6251 159.161 66.8982C160.863 67.1816 162.391 68.2639 163.745 70.1449C165.1 72.026 165.663 73.8476 165.434 75.6097C165.213 77.3821 164.046 79.0865 161.932 80.7229C159.819 82.3592 157.912 83.0357 156.21 82.7523C154.516 82.4792 152.992 81.4021 151.637 79.521ZM154.311 77.4504C154.563 77.7998 154.842 77.9922 155.148 78.0273C155.454 78.0625 155.797 77.9327 156.178 77.638L160.715 74.1249C161.095 73.8302 161.313 73.5256 161.367 73.2113C161.421 72.897 161.323 72.5651 161.071 72.2156C160.82 71.8661 160.541 71.6738 160.235 71.6386C159.928 71.6035 159.585 71.7332 159.205 72.0279L154.668 75.5411C154.277 75.8435 154.055 76.1519 154 76.4663C153.956 76.7728 154.059 77.1009 154.311 77.4504Z" fill="#4C1F1F"/>
</svg>
